<svg xmlns="http://www.w3.org/2000/svg" version="1.1" xmlns:xlink="http://www.w3.org/1999/xlink" xmlns:svgjs="http://svgjs.dev/svgjs" viewBox="0 0 800 800" opacity="1"><defs><symbol id="bbburst-shape-1" viewBox="0 0 194 167"><path d="m97 0 96.129 166.5H.871L97 0Z"></path></symbol><symbol id="bbburst-shape-5" viewBox="0 0 145 145"><circle cx="72.5" cy="72.5" r="72.5"></circle></symbol><symbol id="bbburst-shape-8" viewBox="0 0 87 168"><path d="m12 12 31.2546 18.0749c16.4102 9.4902 20.014 31.6325 7.4603 45.8369L36.3296 92.1884c-12.5684 14.2206-8.9394 36.3916 7.5068 45.8636L75 156" stroke-width="14" stroke-linecap="round" stroke-linejoin="round"></path></symbol><symbol id="bbburst-shape-10" viewBox="0 0 145 145"><circle cx="72.5" cy="72.5" r="61.5" fill="none" stroke-width="22"></circle></symbol><symbol id="bbburst-shape-11" viewBox="0 0 194 167"><path d="M10.398 161 97 11l86.603 150H10.397Z" stroke-width="11"></path></symbol></defs><use xlink:href="#bbburst-shape-1" width="9.602709758806007" opacity="0.8279741581236066" transform="matrix(0.7756003641783523,-0.631224266870664,0.631224266870664,0.7756003641783523,218.0154566414576,114.79475574768111)" fill="#ff5c58"></use><use xlink:href="#bbburst-shape-1" width="6.423017167081552" opacity="0.8481308287096804" transform="matrix(0.7110347894267819,0.7031568304616062,-0.7031568304616062,0.7110347894267819,627.4426196581081,68.44405773481014)" fill="#2c2891"></use><use xlink:href="#bbburst-shape-10" width="8.951169362970063" opacity="0.8445713233780101" transform="matrix(0.9481575041865914,0.31780079807114076,-0.31780079807114076,0.9481575041865914,577.4228146526275,-24.46591011367218)" fill="none" stroke="#2c2891"></use><use xlink:href="#bbburst-shape-1" width="14.55355579917497" opacity="0.5536698216871203" transform="matrix(0.997817588255786,0.06603075470874568,-0.06603075470874568,0.997817588255786,244.86696129436586,-99.41628857974615)" fill="#ff5c58"></use><use xlink:href="#bbburst-shape-10" width="36.2143996700122" opacity="0.10558325922551881" transform="matrix(0.7461802529780149,-0.6657439673520636,0.6657439673520636,0.7461802529780149,294.0558922930558,476.58028305123776)" fill="none" stroke="#ff5c58"></use><use xlink:href="#bbburst-shape-10" width="15.579335659045977" opacity="0.5227895924932715" transform="matrix(0.7836196528178747,-0.6212408870298167,0.6212408870298167,0.7836196528178747,-45.95062881487914,188.86137624781105)" fill="none" stroke="#2c2891"></use><use xlink:href="#bbburst-shape-1" width="8.844301559409018" opacity="0.8641288231138801" transform="matrix(0.9047614367062297,0.4259187042726336,-0.4259187042726336,0.9047614367062297,621.523477935684,62.5949554215851)" fill="#ff5c58"></use><use xlink:href="#bbburst-shape-11" width="7.053522230442377" opacity="0.8525456905337266" transform="matrix(0.9115758216842459,-0.41113199987436144,0.41113199987436144,0.9115758216842459,189.44488501177324,87.40023503564674)" fill="none" stroke="#2c2891"></use><use xlink:href="#bbburst-shape-5" width="10.265540379910544" opacity="0.7577926497397545" transform="matrix(0.8556942607445426,-0.5174817215408201,0.5174817215408201,0.8556942607445426,107.38012695252038,133.04473635252282)" fill="#2c2891"></use><use xlink:href="#bbburst-shape-8" width="7.704084535244425" opacity="0.865146771346767" transform="matrix(0.8292987722746329,-0.558805463738309,0.558805463738309,0.8292987722746329,118.95022519095883,43.40606980910701)" fill="none" stroke="#2c2891"></use><use xlink:href="#bbburst-shape-10" width="9.207482625170368" opacity="0.8122559829327441" transform="matrix(0.8670981487660615,-0.4981373308701819,0.4981373308701819,0.8670981487660615,124.38578870563637,11.857654833520655)" fill="none" stroke="#ff5c58"></use><use xlink:href="#bbburst-shape-8" width="10.061383278491634" opacity="0.8149553474616629" transform="matrix(0.7284740144609362,-0.6850734342062664,0.6850734342062664,0.7284740144609362,61.35800451736071,168.79534748951096)" fill="none" stroke="#ff5c58"></use><use xlink:href="#bbburst-shape-11" width="29.295115175402508" opacity="0.3021238390258809" transform="matrix(0.7888719570062859,-0.6145575932726506,0.6145575932726506,0.7888719570062859,259.0544061530315,384.7254012271303)" fill="none" stroke="#ff5c58"></use><use xlink:href="#bbburst-shape-5" width="6.999886260359103" opacity="0.8614149817549106" transform="matrix(0.9822739471219887,0.18745104108910277,-0.18745104108910277,0.9822739471219887,529.9979439723479,-15.294393444067907)" fill="#2c2891"></use><use xlink:href="#bbburst-shape-8" width="19.879027972024375" opacity="0.6030816247372666" transform="matrix(0.9971786492299016,0.07506491537348686,-0.07506491537348686,0.9971786492299016,295.74966750664765,128.58573161289348)" fill="none" stroke="#ff5c58"></use><use xlink:href="#bbburst-shape-8" width="28.586938382793026" opacity="0.3797457958093746" transform="matrix(0.9991475767621738,0.041280986546786476,-0.041280986546786476,0.9991475767621738,559.4905813968431,230.34647264710878)" fill="none" stroke="#2c2891"></use><use xlink:href="#bbburst-shape-1" width="23.2969233570539" opacity="0.27631742546012783" transform="matrix(0.882529905362152,0.47025627708885603,-0.47025627708885603,0.882529905362152,270.3228553308676,148.79952557515742)" fill="#2c2891"></use><use xlink:href="#bbburst-shape-8" width="5.849725121393221" opacity="0.8878407862452415" transform="matrix(0.9637183369204214,-0.2669212750668954,0.2669212750668954,0.9637183369204214,287.37618313844393,65.67359188982795)" fill="none" stroke="#2c2891"></use><use xlink:href="#bbburst-shape-11" width="33.901997439519285" opacity="0.02353500023809474" transform="matrix(0.7423070959021607,0.6700598296967969,-0.6700598296967969,0.7423070959021607,293.4069595679766,-157.2008456591514)" fill="none" stroke="#ff5c58"></use><use xlink:href="#bbburst-shape-11" width="36.53025082392816" opacity="0.01564557647929521" transform="matrix(0.9925676781981262,0.12169389547705722,-0.12169389547705722,0.9925676781981262,694.9075973068576,-355.18505724998005)" fill="none" stroke="#ff5c58"></use><use xlink:href="#bbburst-shape-11" width="8.425558715694214" opacity="0.7819954488180072" transform="matrix(0.7117314116913415,-0.7024517048252145,0.7024517048252145,0.7117314116913415,60.055837563048726,198.81479373495108)" fill="none" stroke="#ff5c58"></use><use xlink:href="#bbburst-shape-8" width="9.102522354344421" opacity="0.8494611677333559" transform="matrix(0.855559260271457,0.5177048890668866,-0.5177048890668866,0.855559260271457,628.3217192090401,118.32750380283733)" fill="none" stroke="#2c2891"></use><use xlink:href="#bbburst-shape-8" width="27.139770621097696" opacity="0.045340965647408416" transform="matrix(0.9232010558792366,-0.38431733037096144,0.38431733037096144,0.9232010558792366,9.244308708464644,-330.33362445314435)" fill="none" stroke="#ff5c58"></use><use xlink:href="#bbburst-shape-8" width="10.132213016170866" opacity="0.6967670000452917" transform="matrix(0.9188952433042928,0.39450162462624205,-0.39450162462624205,0.9188952433042928,673.7967771368417,94.18639560843229)" fill="none" stroke="#ff5c58"></use><use xlink:href="#bbburst-shape-10" width="36.698307832626206" opacity="0.21917615880600272" transform="matrix(0.7662719413221688,0.6425163904075558,-0.6425163904075558,0.7662719413221688,950.6182175443173,251.4050622673356)" fill="none" stroke="#2c2891"></use><use xlink:href="#bbburst-shape-8" width="40.610201775878046" opacity="-0.09673608683864954" transform="matrix(0.8005441757093339,0.5992737460775861,-0.5992737460775861,0.8005441757093339,278.2294621144161,-285.0796859405218)" fill="none" stroke="#2c2891"></use><use xlink:href="#bbburst-shape-1" width="17.90944381471429" opacity="0.49754375607963464" transform="matrix(0.9999816872753601,-0.006051868630753273,0.006051868630753273,0.9999816872753601,363.1166210862065,224.74644097337466)" fill="#2c2891"></use><use xlink:href="#bbburst-shape-10" width="15.110148130009524" opacity="0.6583083167570285" transform="matrix(0.9975376640625481,0.07013279387444282,-0.07013279387444282,0.9975376640625481,338.72135870323734,130.6551208643915)" fill="none" stroke="#ff5c58"></use><use xlink:href="#bbburst-shape-1" width="11.730305503414368" opacity="0.7001031719765208" transform="matrix(0.9662741170059669,-0.2575156904041754,0.2575156904041754,0.9662741170059669,157.8785403458528,-5.062086920947365)" fill="#2c2891"></use><use xlink:href="#bbburst-shape-8" width="8.527686047142081" opacity="0.7627713132358452" transform="matrix(0.9796875948131737,-0.20052983959794832,0.20052983959794832,0.9796875948131737,415.93671145499604,-27.50152258737353)" fill="none" stroke="#2c2891"></use><use xlink:href="#bbburst-shape-11" width="12.026533002525548" opacity="0.7120319599660649" transform="matrix(0.9655104735879454,0.2603642168040407,-0.2603642168040407,0.9655104735879454,626.4242518039306,-7.848057251529497)" fill="none" stroke="#2c2891"></use><use xlink:href="#bbburst-shape-10" width="35.39715356622798" opacity="-0.1055197296464725" transform="matrix(0.9812284059999872,0.19284920341739623,-0.19284920341739623,0.9812284059999872,818.5995162473394,348.6734279929105)" fill="none" stroke="#ff5c58"></use><use xlink:href="#bbburst-shape-1" width="44.593663046736665" opacity="-0.10034432541766458" transform="matrix(0.998921368061093,-0.04643382851924182,0.04643382851924182,0.998921368061093,6.4264659123614365,349.0296802587644)" fill="#ff5c58"></use><use xlink:href="#bbburst-shape-10" width="12.549710473242268" opacity="0.7510981215768697" transform="matrix(0.7585289102647388,0.6516393882298612,-0.6516393882298612,0.7585289102647388,710.8541901200665,190.09518177056793)" fill="none" stroke="#2c2891"></use><use xlink:href="#bbburst-shape-11" width="31.669332876485527" opacity="-0.11349077693627363" transform="matrix(0.9410737764734198,0.33820134126590323,-0.33820134126590323,0.9410737764734198,874.1002528011627,-337.20530883841735)" fill="none" stroke="#2c2891"></use><use xlink:href="#bbburst-shape-10" width="5.036577541920753" opacity="0.9253553216249367" transform="matrix(0.9650702981945936,-0.261991067677122,0.261991067677122,0.9650702981945936,291.46072085844565,48.19610241052368)" fill="none" stroke="#ff5c58"></use><use xlink:href="#bbburst-shape-8" width="17.402807605707522" opacity="0.27076986062563746" transform="matrix(0.8422711230878442,0.5390541301319761,-0.5390541301319761,0.8422711230878442,626.2144668043717,-269.26278352254565)" fill="none" stroke="#ff5c58"></use><use xlink:href="#bbburst-shape-10" width="14.319317240348475" opacity="0.5772577669637274" transform="matrix(0.7814212541671233,-0.6240038650007548,0.6240038650007548,0.7814212541671233,320.59518702626315,164.60642166258083)" fill="none" stroke="#ff5c58"></use><use xlink:href="#bbburst-shape-10" width="8.245275474322213" opacity="0.8840854358923951" transform="matrix(0.7595056257393619,-0.6505007336431378,0.6505007336431378,0.7595056257393619,124.71797562882404,48.10540527960285)" fill="none" stroke="#2c2891"></use><use xlink:href="#bbburst-shape-11" width="11.3075000036302" opacity="0.7188763861856582" transform="matrix(0.9903741669711583,-0.13841607347481055,0.13841607347481055,0.9903741669711583,213.07293117429026,16.426020327654953)" fill="none" stroke="#ff5c58"></use><use xlink:href="#bbburst-shape-11" width="12.311405925520726" opacity="0.6507982918215653" transform="matrix(0.9575964169206529,-0.2881130026582056,0.2881130026582056,0.9575964169206529,429.2601487119436,-26.796484419879732)" fill="none" stroke="#ff5c58"></use><use xlink:href="#bbburst-shape-8" width="19.35192254840862" opacity="0.353884937179621" transform="matrix(0.8921221854988458,0.451794207732639,-0.451794207732639,0.8921221854988458,286.4109662590178,92.87789475640125)" fill="none" stroke="#ff5c58"></use><use xlink:href="#bbburst-shape-11" width="13.410163002995215" opacity="0.7332068878449123" transform="matrix(0.9964142050471763,-0.08460929015305431,0.08460929015305431,0.9964142050471763,302.59756709779754,107.56615206471753)" fill="none" stroke="#2c2891"></use><use xlink:href="#bbburst-shape-8" width="11.82066454723802" opacity="0.7422932177863069" transform="matrix(0.8373068038894965,0.5467333135637119,-0.5467333135637119,0.8373068038894965,521.4183388407314,-8.328602547357832)" fill="none" stroke="#ff5c58"></use><use xlink:href="#bbburst-shape-10" width="5.2405929194554535" opacity="0.8944366108502594" transform="matrix(0.8752493672448483,-0.4836719395804276,0.4836719395804276,0.8752493672448483,188.70121896612974,96.05858592971708)" fill="none" stroke="#ff5c58"></use><use xlink:href="#bbburst-shape-10" width="19.434102367251217" opacity="0.48100699248107504" transform="matrix(0.9079151425427446,-0.4191540217409201,0.4191540217409201,0.9079151425427446,7.28887670711714,-47.353556792021266)" fill="none" stroke="#2c2891"></use><use xlink:href="#bbburst-shape-11" width="10.359985937656992" opacity="0.7955873822035302" transform="matrix(0.9231346885451289,-0.38447671815688367,0.38447671815688367,0.9231346885451289,296.5966991433537,-40.95220883398855)" fill="none" stroke="#ff5c58"></use><use xlink:href="#bbburst-shape-8" width="9.018097615085509" opacity="0.7608313075438734" transform="matrix(0.9972374058080423,0.0742802561738031,-0.0742802561738031,0.9972374058080423,498.9730996516658,79.14838397979872)" fill="none" stroke="#ff5c58"></use><use xlink:href="#bbburst-shape-5" width="12.322373172440145" opacity="0.7226164305395206" transform="matrix(0.8327294092793853,0.5536801702438023,-0.5536801702438023,0.8327294092793853,626.5598602996135,-60.906744406763266)" fill="#2c2891"></use><use xlink:href="#bbburst-shape-11" width="12.878522460849766" opacity="0.6417724848734192" transform="matrix(0.9934140613928988,-0.1145796780710519,0.1145796780710519,0.9934140613928988,278.66938236477324,-142.44214461689964)" fill="none" stroke="#2c2891"></use><use xlink:href="#bbburst-shape-11" width="13.67496242841094" opacity="0.7060950899127978" transform="matrix(0.9205759251732903,0.3905636516514825,-0.3905636516514825,0.9205759251732903,513.7961568167784,156.14251360229656)" fill="none" stroke="#ff5c58"></use><use xlink:href="#bbburst-shape-8" width="27.93415389831097" opacity="0.4441825101801029" transform="matrix(0.9191409693051936,0.39392877344097244,-0.39392877344097244,0.9191409693051936,435.73688706825567,251.96071019494144)" fill="none" stroke="#2c2891"></use><use xlink:href="#bbburst-shape-8" width="26.053236507985773" opacity="0.4372334130956177" transform="matrix(0.7173256753543421,0.6967380249975144,-0.6967380249975144,0.7173256753543421,855.8460974950701,275.3194646851692)" fill="none" stroke="#ff5c58"></use><use xlink:href="#bbburst-shape-8" width="12.507644077170736" opacity="0.7043018618742658" transform="matrix(0.9055039386924495,-0.4243378571521291,0.4243378571521291,0.9055039386924495,326.4597058738108,-45.169591850352106)" fill="none" stroke="#2c2891"></use><use xlink:href="#bbburst-shape-5" width="27.746135801537996" opacity="0.3180613722303409" transform="matrix(0.9062188676751931,0.422808897576069,-0.422808897576069,0.9062188676751931,386.7394569506778,-223.95936902701646)" fill="#ff5c58"></use><use xlink:href="#bbburst-shape-10" width="21.920909035004048" opacity="0.4324238379984785" transform="matrix(0.9489621163607974,0.31539007865187585,-0.31539007865187585,0.9489621163607974,535.3115795695112,271.61778739543024)" fill="none" stroke="#ff5c58"></use><use xlink:href="#bbburst-shape-8" width="19.302996903562924" opacity="0.4769234846006497" transform="matrix(0.7121039333169701,0.7020740617303136,-0.7020740617303136,0.7121039333169701,893.7207967509588,192.70078175377188)" fill="none" stroke="#2c2891"></use><use xlink:href="#bbburst-shape-10" width="22.39979769450747" opacity="0.30936541534586437" transform="matrix(0.7113035648417805,0.7028849398325269,-0.7028849398325269,0.7113035648417805,712.6198260511281,415.8801623114753)" fill="none" stroke="#2c2891"></use><use xlink:href="#bbburst-shape-5" width="13.25672201728964" opacity="0.743200767869551" transform="matrix(0.9993235443953027,0.03677572048525207,-0.03677572048525207,0.9993235443953027,436.9079385613745,111.9346120048416)" fill="#ff5c58"></use><use xlink:href="#bbburst-shape-8" width="26.64725156574113" opacity="0.2865031202062083" transform="matrix(0.832484292894451,-0.5540486459545099,0.5540486459545099,0.832484292894451,404.6137449091483,290.64070184006187)" fill="none" stroke="#ff5c58"></use><use xlink:href="#bbburst-shape-5" width="13.251914690223494" opacity="0.5584552093974462" transform="matrix(0.9987676909198936,0.04962962396133935,-0.04962962396133935,0.9987676909198936,583.5022493218506,-102.24934816124068)" fill="#2c2891"></use><use xlink:href="#bbburst-shape-8" width="12.083992742521579" opacity="0.6463052034080917" transform="matrix(0.8683780467666884,-0.495902780687577,0.495902780687577,0.8683780467666884,267.39652424345127,-86.80191296803355)" fill="none" stroke="#ff5c58"></use><use xlink:href="#bbburst-shape-5" width="5.5951102087885225" opacity="0.8827218614481412" transform="matrix(0.9596798890198925,-0.2810951984840132,0.2810951984840132,0.9596798890198925,311.9305460278267,62.2281329260573)" fill="#2c2891"></use><use xlink:href="#bbburst-shape-10" width="5.176341015867765" opacity="0.9356761708348498" transform="matrix(0.9997852493520338,0.020723300366771988,-0.020723300366771988,0.9997852493520338,431.3279502568064,13.491480434719563)" fill="none" stroke="#ff5c58"></use><use xlink:href="#bbburst-shape-11" width="32.48975993641264" opacity="0.18188431407642158" transform="matrix(0.9348562209617023,-0.3550265428516647,0.3550265428516647,0.9348562209617023,40.63464966925912,339.2062494376297)" fill="none" stroke="#ff5c58"></use><use xlink:href="#bbburst-shape-1" width="6.4047048429187265" opacity="0.8947368305609746" transform="matrix(0.9579767331436115,0.28684591465714415,-0.28684591465714415,0.9579767331436115,466.1269978625594,2.869252789783218)" fill="#2c2891"></use><use xlink:href="#bbburst-shape-11" width="4.866249698825585" opacity="0.9235668259836529" transform="matrix(0.9420085475813088,-0.3355888798571148,0.3355888798571148,0.9420085475813088,254.23658278156807,-9.183537715991577)" fill="none" stroke="#2c2891"></use><use xlink:href="#bbburst-shape-10" width="26.654316173846176" opacity="0.40158459761927257" transform="matrix(0.9997242695454897,-0.023481586014088694,0.023481586014088694,0.9997242695454897,316.3599412451208,262.72787383763597)" fill="none" stroke="#2c2891"></use><use xlink:href="#bbburst-shape-8" width="12.683234486675108" opacity="0.631119556332612" transform="matrix(0.8581092627561966,0.5134671295925541,-0.5134671295925541,0.8581092627561966,723.1523330966347,-57.74157158248738)" fill="none" stroke="#2c2891"></use><use xlink:href="#bbburst-shape-8" width="18.11587722811708" opacity="0.5604690437733919" transform="matrix(0.9001840840528659,0.4355096035886038,-0.4355096035886038,0.9001840840528659,508.58147883986413,-153.2744426331172)" fill="none" stroke="#ff5c58"></use><use xlink:href="#bbburst-shape-11" width="6.647221668987722" opacity="0.9213260920044396" transform="matrix(0.9721674764885119,-0.23428699848254222,0.23428699848254222,0.9721674764885119,324.549524813927,-16.28696015120795)" fill="none" stroke="#ff5c58"></use><use xlink:href="#bbburst-shape-11" width="22.488217225794212" opacity="0.5335654725321577" transform="matrix(0.796120543667445,-0.6051380668497495,0.6051380668497495,0.796120543667445,-58.72082228172451,56.75847421741486)" fill="none" stroke="#ff5c58"></use><use xlink:href="#bbburst-shape-11" width="8.468088529647178" opacity="0.8449276610874499" transform="matrix(0.7704728866185426,0.6374727688189437,-0.6374727688189437,0.7704728866185426,690.8328571331351,31.185093178828254)" fill="none" stroke="#2c2891"></use><use xlink:href="#bbburst-shape-11" width="4.936615170734167" opacity="0.9253272666057598" transform="matrix(0.7157494901023308,0.698357120260296,-0.698357120260296,0.7157494901023308,646.6543700685604,98.88341260677646)" fill="none" stroke="#2c2891"></use><use xlink:href="#bbburst-shape-11" width="28.44268334370769" opacity="0.16623238643517324" transform="matrix(0.9781812278992918,0.20775342448545508,-0.20775342448545508,0.9781812278992918,554.5650163799155,370.78516257755996)" fill="none" stroke="#2c2891"></use><use xlink:href="#bbburst-shape-1" width="20.80325799592083" opacity="0.38992936261959" transform="matrix(0.822595324096877,-0.5686272353431147,0.5686272353431147,0.822595324096877,428.17223152990994,2.1659830672671774)" fill="#ff5c58"></use><use xlink:href="#bbburst-shape-10" width="28.082906340629386" opacity="0.1313658884630302" transform="matrix(0.7648445819988258,0.6442148441219291,-0.6442148441219291,0.7648445819988258,276.4229482105678,-39.497481344612254)" fill="none" stroke="#2c2891"></use><use xlink:href="#bbburst-shape-1" width="20.548960543340876" opacity="0.5625354134992638" transform="matrix(0.912051806770434,-0.4100749952957227,0.4100749952957227,0.912051806770434,81.09595707652363,-93.16968479252228)" fill="#2c2891"></use><use xlink:href="#bbburst-shape-10" width="14.22704748739254" opacity="0.729221935180272" transform="matrix(0.9886552385417953,-0.1502025941981894,0.1502025941981894,0.9886552385417953,384.89937839593676,-104.58473318433744)" fill="none" stroke="#ff5c58"></use><use xlink:href="#bbburst-shape-11" width="39.0123107533075" opacity="0.04029097463599052" transform="matrix(0.9436175457723249,0.3310376524062092,-0.3310376524062092,0.9436175457723249,147.81850400378812,244.29948742936756)" fill="none" stroke="#ff5c58"></use><use xlink:href="#bbburst-shape-8" width="15.681050632935847" opacity="0.6602936776771007" transform="matrix(0.9828145598694036,-0.18459561454354917,0.18459561454354917,0.9828145598694036,464.24499990679607,54.30118011628548)" fill="none" stroke="#ff5c58"></use><use xlink:href="#bbburst-shape-5" width="9.151554685387234" opacity="0.7592024866339458" transform="matrix(0.9985899231571388,0.053086395328932626,-0.053086395328932626,0.9985899231571388,514.3142168737493,47.29263696309698)" fill="#ff5c58"></use><use xlink:href="#bbburst-shape-1" width="26.670302367417058" opacity="0.13621295191481764" transform="matrix(0.9933935687978612,0.11475721097625613,-0.11475721097625613,0.9933935687978612,308.3739819385877,369.447822149737)" fill="#ff5c58"></use><use xlink:href="#bbburst-shape-10" width="10.827016241047094" opacity="0.7677218756671769" transform="matrix(0.7348246657472004,0.6782571124651147,-0.6782571124651147,0.7348246657472004,605.8871069811074,17.83533985221692)" fill="none" stroke="#ff5c58"></use><use xlink:href="#bbburst-shape-8" width="22.23882741163861" opacity="0.3257563248905361" transform="matrix(0.9010954447350858,0.43362080148175297,-0.43362080148175297,0.9010954447350858,866.7412683101736,27.06611649067827)" fill="none" stroke="#ff5c58"></use><use xlink:href="#bbburst-shape-5" width="10.773987517820695" opacity="0.8132216598007811" transform="matrix(0.8151749475930165,0.5792148175044582,-0.5792148175044582,0.8151749475930165,704.9736613437661,38.70986410519549)" fill="#2c2891"></use><use xlink:href="#bbburst-shape-8" width="22.458130110483857" opacity="0.4811974890847629" transform="matrix(0.9580214911829341,-0.28669639417269843,0.28669639417269843,0.9580214911829341,41.32369253266587,30.1677223496377)" fill="none" stroke="#ff5c58"></use><use xlink:href="#bbburst-shape-10" width="14.594995293034575" opacity="0.7075615305134275" transform="matrix(0.7079056639313692,0.7063069948498935,-0.7063069948498935,0.7079056639313692,555.6677134769114,61.587503370072625)" fill="none" stroke="#2c2891"></use><use xlink:href="#bbburst-shape-5" width="6.480782454625567" opacity="0.7943282389182795" transform="matrix(0.7837993599484377,-0.6210141410180765,0.6210141410180765,0.7837993599484377,227.22705265385247,138.0403713460875)" fill="#2c2891"></use><use xlink:href="#bbburst-shape-8" width="10.862601597057427" opacity="0.7861099266504163" transform="matrix(0.9934009200194261,0.11469355738034127,-0.11469355738034127,0.9934009200194261,404.9270672230979,-87.42610264237373)" fill="none" stroke="#ff5c58"></use><use xlink:href="#bbburst-shape-10" width="16.82502944483214" opacity="0.16223325916683495" transform="matrix(0.8221377261733913,0.5692886431349617,-0.5692886431349617,0.8221377261733913,649.1529011578383,-309.5715169873868)" fill="none" stroke="#ff5c58"></use><use xlink:href="#bbburst-shape-11" width="32.30238581958039" opacity="0.3392395130924434" transform="matrix(0.8572613585358726,0.51488150399993,-0.51488150399993,0.8572613585358726,295.0989393475862,39.974818246175005)" fill="none" stroke="#ff5c58"></use><use xlink:href="#bbburst-shape-11" width="6.654499666896558" opacity="0.8640697530031966" transform="matrix(0.9518183094224977,-0.30666252762295293,0.30666252762295293,0.9518183094224977,276.3108227520041,-40.91874440301365)" fill="none" stroke="#2c2891"></use><use xlink:href="#bbburst-shape-11" width="22.225815777719323" opacity="0.44867182668279715" transform="matrix(0.9987058574454667,0.05085872888811767,-0.05085872888811767,0.9987058574454667,248.57543069045636,-189.36552342271096)" fill="none" stroke="#ff5c58"></use><use xlink:href="#bbburst-shape-10" width="9.673284731260374" opacity="0.7740338319909115" transform="matrix(0.9833936740050235,-0.1814852113173452,0.1814852113173452,0.9833936740050235,311.04786285084083,-93.5004483479475)" fill="none" stroke="#ff5c58"></use><use xlink:href="#bbburst-shape-8" width="10.69069640790423" opacity="0.80395553480958" transform="matrix(0.999871881494374,-0.01600689216870323,0.01600689216870323,0.999871881494374,412.31194835623427,85.01270010683135)" fill="none" stroke="#2c2891"></use><use xlink:href="#bbburst-shape-11" width="16.080767098871537" opacity="0.5511693663632378" transform="matrix(0.9934505253570096,0.11426308970039963,-0.11426308970039963,0.9934505253570096,379.99955694747547,195.03928812296908)" fill="none" stroke="#2c2891"></use><use xlink:href="#bbburst-shape-10" width="21.74083039219263" opacity="0.13561792832144548" transform="matrix(0.9656581478411446,-0.2598159762370479,0.2598159762370479,0.9656581478411446,654.4974858213927,139.8350635575618)" fill="none" stroke="#ff5c58"></use><use xlink:href="#bbburst-shape-10" width="4.771717949071799" opacity="0.9189118751721894" transform="matrix(0.9379951833595055,0.34664828860729663,-0.34664828860729663,0.9379951833595055,519.0586038875282,56.06893192428686)" fill="none" stroke="#ff5c58"></use><use xlink:href="#bbburst-shape-1" width="11.810106029574495" opacity="0.6396696715487831" transform="matrix(0.9458820330615224,-0.3245106770684148,0.3245106770684148,0.9458820330615224,426.12986152095715,37.902472883757525)" fill="#2c2891"></use><use xlink:href="#bbburst-shape-11" width="26.836574939638016" opacity="0.14356918350874248" transform="matrix(0.7141511369192524,0.699991538260956,-0.699991538260956,0.7141511369192524,300.73225716851016,212.7964114407149)" fill="none" stroke="#ff5c58"></use><use xlink:href="#bbburst-shape-5" width="33.695552395609326" opacity="0.003616958605666021" transform="matrix(0.7887941002988738,-0.6146575203588501,0.6146575203588501,0.7887941002988738,409.40169487313085,453.88735725764326)" fill="#ff5c58"></use><use xlink:href="#bbburst-shape-8" width="33.90679992580074" opacity="0.3017028188744386" transform="matrix(0.823595311896383,0.5671778929245211,-0.5671778929245211,0.823595311896383,381.2821993798308,273.29536573401055)" fill="none" stroke="#2c2891"></use><use xlink:href="#bbburst-shape-8" width="11.133860445023625" opacity="0.7145984312477395" transform="matrix(0.8722811374068227,-0.48900472116765886,0.48900472116765886,0.8722811374068227,81.11494670570642,103.50326925155446)" fill="none" stroke="#ff5c58"></use><use xlink:href="#bbburst-shape-8" width="16.538691324260135" opacity="0.559821842564113" transform="matrix(0.9395689123293235,0.34235983845114204,-0.34235983845114204,0.9395689123293235,727.2441185786505,23.367580696322193)" fill="none" stroke="#ff5c58"></use><use xlink:href="#bbburst-shape-11" width="6.642313739630419" opacity="0.9009592140635521" transform="matrix(0.9095899773520211,-0.4155070072823681,0.4155070072823681,0.9095899773520211,207.85440692493108,-0.7772416872517169)" fill="none" stroke="#2c2891"></use><use xlink:href="#bbburst-shape-11" width="9.726390666026791" opacity="0.7800917995509574" transform="matrix(0.8982952731945584,-0.4393923100787197,0.4393923100787197,0.8982952731945584,317.69409702713295,28.098969531014063)" fill="none" stroke="#ff5c58"></use><use xlink:href="#bbburst-shape-11" width="13.517169674617948" opacity="0.6692532179560429" transform="matrix(0.9076361037974264,0.4197579100903606,-0.4197579100903606,0.9076361037974264,651.4154341946671,152.8149403407969)" fill="none" stroke="#2c2891"></use><use xlink:href="#bbburst-shape-1" width="7.864370661155138" opacity="0.7888818597663914" transform="matrix(0.9884689835608452,0.1514234741979904,-0.1514234741979904,0.9884689835608452,550.4185386026097,19.482650062373466)" fill="#ff5c58"></use><use xlink:href="#bbburst-shape-10" width="10.317645678112658" opacity="0.8522409751009776" transform="matrix(0.9905689040308389,0.137015496813838,-0.137015496813838,0.9905689040308389,385.25676942835787,19.457874254434557)" fill="none" stroke="#2c2891"></use><use xlink:href="#bbburst-shape-10" width="14.535020773045916" opacity="0.6360718577757853" transform="matrix(0.999716743583602,-0.023799844507866506,0.023799844507866506,0.999716743583602,280.9863521459699,-127.65601907404334)" fill="none" stroke="#ff5c58"></use><use xlink:href="#bbburst-shape-10" width="5.677817475776335" opacity="0.978329438614475" transform="matrix(0.9951712419114157,-0.09815395698844999,0.09815395698844999,0.9951712419114157,366.3049806567626,-2.7572360694342706)" fill="none" stroke="#2c2891"></use><use xlink:href="#bbburst-shape-8" width="13.54257691552552" opacity="0.4963492923568069" transform="matrix(0.8643821102213131,0.5028355273142002,-0.5028355273142002,0.8643821102213131,819.0457227874954,86.84806376561869)" fill="none" stroke="#2c2891"></use><use xlink:href="#bbburst-shape-10" width="15.470440296367425" opacity="0.6384161678237434" transform="matrix(0.9999447675944615,0.010510078993914363,-0.010510078993914363,0.9999447675944615,341.02469536136374,152.91573156268112)" fill="none" stroke="#2c2891"></use><use xlink:href="#bbburst-shape-8" width="19.517409131027357" opacity="0.5938365164987778" transform="matrix(0.862883087452734,-0.5054035787250001,0.5054035787250001,0.862883087452734,320.879408787267,186.7594049720435)" fill="none" stroke="#2c2891"></use><use xlink:href="#bbburst-shape-11" width="12.973444877596982" opacity="0.5450462222713462" transform="matrix(0.7976540142421201,-0.6031153070213288,0.6031153070213288,0.7976540142421201,308.42078590410154,-49.0999914105019)" fill="none" stroke="#ff5c58"></use><use xlink:href="#bbburst-shape-8" width="5.72168248105217" opacity="0.9395286962676562" transform="matrix(0.9295087503885984,0.36880005823077955,-0.36880005823077955,0.9295087503885984,571.7967826145345,23.274502648956343)" fill="none" stroke="#ff5c58"></use><use xlink:href="#bbburst-shape-8" width="15.647369037484127" opacity="0.6769334649193888" transform="matrix(0.8347914053299934,-0.5505663534826432,0.5505663534826432,0.8347914053299934,210.8420182553947,-70.04266946890732)" fill="none" stroke="#2c2891"></use><use xlink:href="#bbburst-shape-8" width="24.293848702357998" opacity="0.4556311389014692" transform="matrix(0.9521383884332896,-0.30566728524926945,0.30566728524926945,0.9521383884332896,103.611491702411,206.1165552521777)" fill="none" stroke="#ff5c58"></use><use xlink:href="#bbburst-shape-10" width="7.224120937340467" opacity="0.9055897978686255" transform="matrix(0.7901632309299444,-0.6128964582099911,0.6128964582099911,0.7901632309299444,184.7421944239915,113.20508454397066)" fill="none" stroke="#ff5c58"></use><use xlink:href="#bbburst-shape-11" width="28.160379559320386" opacity="0.04095434982684143" transform="matrix(0.8106616779530083,0.5855148536957991,-0.5855148536957991,0.8106616779530083,987.698631079302,297.95889639328)" fill="none" stroke="#2c2891"></use><use xlink:href="#bbburst-shape-11" width="33.34276404095666" opacity="0.21030701946093056" transform="matrix(0.7540460398424924,0.6568215661790151,-0.6568215661790151,0.7540460398424924,854.1220287450759,378.304300971658)" fill="none" stroke="#2c2891"></use><use xlink:href="#bbburst-shape-8" width="20.89660350805524" opacity="0.1575774503418882" transform="matrix(0.9570280132261815,-0.289995485999951,0.289995485999951,0.9570280132261815,192.68434618390003,-350.0469599416029)" fill="none" stroke="#ff5c58"></use><use xlink:href="#bbburst-shape-8" width="14.789299978643434" opacity="0.652755748797827" transform="matrix(0.7153325027478804,-0.6987842374527732,0.6987842374527732,0.7153325027478804,82.65635160707524,-33.79992104529606)" fill="none" stroke="#2c2891"></use><use xlink:href="#bbburst-shape-8" width="21.222107489761218" opacity="0.5830367918575244" transform="matrix(0.9973593145704772,-0.07262504829263636,0.07262504829263636,0.9973593145704772,176.9643344851529,41.447466085006454)" fill="none" stroke="#2c2891"></use><use xlink:href="#bbburst-shape-10" width="4.884496690222668" opacity="0.9375036915394122" transform="matrix(0.9835113201450334,0.18084657349967584,-0.18084657349967584,0.9835113201450334,441.8158336627032,6.530548203588921)" fill="none" stroke="#2c2891"></use><use xlink:href="#bbburst-shape-10" width="6.031518271773565" opacity="0.9052073892544106" transform="matrix(0.9330278687627025,-0.3598041079700579,0.3598041079700579,0.9330278687627025,294.9269695753827,37.03014914465666)" fill="none" stroke="#ff5c58"></use><use xlink:href="#bbburst-shape-10" width="8.378083767089088" opacity="0.7747106477428957" transform="matrix(0.9890262121096409,-0.14774014945185207,0.14774014945185207,0.9890262121096409,237.5841131973085,-16.01343242129815)" fill="none" stroke="#2c2891"></use><use xlink:href="#bbburst-shape-10" width="31.97010997459541" opacity="0.3245055103687552" transform="matrix(0.9995748479732909,-0.029156873960910837,0.029156873960910837,0.9995748479732909,473.4192711034537,-286.0450711777335)" fill="none" stroke="#2c2891"></use><use xlink:href="#bbburst-shape-8" width="7.5121445972440695" opacity="0.8880435639366314" transform="matrix(0.8443839925562552,0.5357384372198414,-0.5357384372198414,0.8443839925562552,649.1288359720123,27.161450023532666)" fill="none" stroke="#ff5c58"></use><use xlink:href="#bbburst-shape-8" width="13.761745787096675" opacity="0.6799225631010741" transform="matrix(0.956012919756518,-0.29332455958991455,0.29332455958991455,0.956012919756518,332.36633235625084,152.19986551371835)" fill="none" stroke="#2c2891"></use><use xlink:href="#bbburst-shape-10" width="29.42227686979265" opacity="0.35080303733824847" transform="matrix(0.7163899776031427,-0.6977000788231063,0.6977000788231063,0.7163899776031427,355.4252196373224,-35.346523391422664)" fill="none" stroke="#ff5c58"></use><use xlink:href="#bbburst-shape-5" width="23.441649728926134" opacity="0.4414464530644171" transform="matrix(0.7967074544729333,-0.604365147892612,0.604365147892612,0.7967074544729333,332.2215288662286,-83.57437024966595)" fill="#2c2891"></use><use xlink:href="#bbburst-shape-8" width="33.40369580405603" opacity="0.18735953060090105" transform="matrix(0.7696001619352201,-0.6385261081187543,0.6385261081187543,0.7696001619352201,-233.95231128429413,103.08207528956245)" fill="none" stroke="#2c2891"></use><use xlink:href="#bbburst-shape-11" width="24.27998689431841" opacity="0.26826644583040715" transform="matrix(0.9958148352306423,0.09139373028041177,-0.09139373028041177,0.9958148352306423,748.9426138524136,-55.96412598815141)" fill="none" stroke="#ff5c58"></use><use xlink:href="#bbburst-shape-11" width="22.72372690634254" opacity="0.39949632146250014" transform="matrix(0.7628065183993782,0.6466267976873671,-0.6466267976873671,0.7628065183993782,918.652711434768,117.98589631362972)" fill="none" stroke="#2c2891"></use><use xlink:href="#bbburst-shape-10" width="26.962911976754864" opacity="0.28699312038818814" transform="matrix(0.9746942653796159,-0.22354214152166244,0.22354214152166244,0.9746942653796159,65.0087417051662,-208.0451671876016)" fill="none" stroke="#2c2891"></use><use xlink:href="#bbburst-shape-10" width="17.54056188751906" opacity="0.6288565622530937" transform="matrix(0.7677866749737065,0.6407055655547407,-0.6407055655547407,0.7677866749737065,634.648940149033,253.61476529529153)" fill="none" stroke="#ff5c58"></use><use xlink:href="#bbburst-shape-8" width="5.566502192200204" opacity="0.9597817566052608" transform="matrix(0.9841580558543352,-0.17729331938066709,0.17729331938066709,0.9841580558543352,309.9655530240693,-0.8709116831117854)" fill="none" stroke="#ff5c58"></use><use xlink:href="#bbburst-shape-8" width="8.052182176000219" opacity="0.8601930956207735" transform="matrix(0.8914481376132053,-0.4531227404864468,0.4531227404864468,0.8914481376132053,162.29195676682392,79.34539586189192)" fill="none" stroke="#2c2891"></use><use xlink:href="#bbburst-shape-11" width="4.310349946827848" opacity="0.9368488704927894" transform="matrix(0.972770751899973,0.23176942043324286,-0.23176942043324286,0.972770751899973,470.66559654352653,30.567830764340613)" fill="none" stroke="#2c2891"></use><use xlink:href="#bbburst-shape-5" width="6.463711527298999" opacity="0.9458949726190586" transform="matrix(0.9884457390743375,-0.15157513287405264,0.15157513287405264,0.9884457390743375,347.60850654354124,26.607480407242235)" fill="#2c2891"></use><use xlink:href="#bbburst-shape-11" width="10.296955772129216" opacity="0.8288838203856422" transform="matrix(0.903507374086058,0.42857254341839973,-0.42857254341839973,0.903507374086058,492.92831355386363,14.654121995009746)" fill="none" stroke="#2c2891"></use><use xlink:href="#bbburst-shape-11" width="7.7696782002356475" opacity="0.79573302270788" transform="matrix(0.8277167568511584,0.5611461221712223,-0.5611461221712223,0.8277167568511584,693.4649547480091,9.71716387543512)" fill="none" stroke="#ff5c58"></use><use xlink:href="#bbburst-shape-8" width="4.765656508215386" opacity="0.9649864277821352" transform="matrix(0.8236843963665041,0.5670485121948101,-0.5670485121948101,0.8236843963665041,639.2215323284692,75.64859689369422)" fill="none" stroke="#2c2891"></use><use xlink:href="#bbburst-shape-8" width="7.588054674480125" opacity="0.8247295606587889" transform="matrix(0.9148423001581145,0.4038112997941122,-0.4038112997941122,0.9148423001581145,617.3141737475107,84.57836677269216)" fill="none" stroke="#ff5c58"></use><use xlink:href="#bbburst-shape-11" width="20.80707269782661" opacity="0.5486212219128923" transform="matrix(0.8669199313282755,0.49844742216785326,-0.49844742216785326,0.8669199313282755,714.3069518779482,-113.20828740161048)" fill="none" stroke="#ff5c58"></use><use xlink:href="#bbburst-shape-8" width="15.065094820868595" opacity="0.6241417396834101" transform="matrix(0.867655988279704,-0.49716504905551234,0.49716504905551234,0.867655988279704,338.01632666031344,146.33928653684768)" fill="none" stroke="#ff5c58"></use><use xlink:href="#bbburst-shape-1" width="7.820454422445174" opacity="0.8976101060118699" transform="matrix(0.9887369069568074,-0.14966405320411988,0.14966405320411988,0.9887369069568074,300.4059328718337,-23.825980005654856)" fill="#2c2891"></use><use xlink:href="#bbburst-shape-1" width="23.473872971257613" opacity="0.40837138568023656" transform="matrix(0.7952415663061717,0.6062927108409821,-0.6062927108409821,0.7952415663061717,373.7658539633707,14.878034509775546)" fill="#2c2891"></use><use xlink:href="#bbburst-shape-8" width="5.597566734907586" opacity="0.9785256133100523" transform="matrix(0.9685358101383644,0.24887423426225172,-0.24887423426225172,0.9685358101383644,498.15415286585113,21.462689049884375)" fill="none" stroke="#2c2891"></use><use xlink:href="#bbburst-shape-10" width="24.25081518514959" opacity="0.43330135939890957" transform="matrix(0.9719617913213331,0.2351388445396152,-0.2351388445396152,0.9719617913213331,277.2268457511834,-143.25907578870888)" fill="none" stroke="#ff5c58"></use><use xlink:href="#bbburst-shape-8" width="8.343345463527397" opacity="0.7701564822971831" transform="matrix(0.910667639543603,-0.41313974668153447,0.41313974668153447,0.910667639543603,234.7443204424524,140.81621081965574)" fill="none" stroke="#ff5c58"></use><use xlink:href="#bbburst-shape-11" width="29.751273532577635" opacity="0.2847219686871547" transform="matrix(0.8155486435858671,0.5786885258455124,-0.5786885258455124,0.8155486435858671,497.5452750985782,362.7095689006568)" fill="none" stroke="#ff5c58"></use><use xlink:href="#bbburst-shape-10" width="25.398595873317586" opacity="0.38872920372586073" transform="matrix(0.9368279830165442,0.3497904090125308,-0.3497904090125308,0.9368279830165442,289.1034900828223,157.14933315923298)" fill="none" stroke="#2c2891"></use><use xlink:href="#bbburst-shape-11" width="27.993496503116404" opacity="0.1123336243677222" transform="matrix(0.970375354936421,0.2416022982755231,-0.2416022982755231,0.970375354936421,767.7343636572062,-272.18462836229565)" fill="none" stroke="#2c2891"></use><use xlink:href="#bbburst-shape-11" width="11.05689770176727" opacity="0.6628652097206003" transform="matrix(0.9831380713647456,-0.18286479331245922,0.18286479331245922,0.9831380713647456,413.24314233010205,-113.13052206291337)" fill="none" stroke="#ff5c58"></use><use xlink:href="#bbburst-shape-10" width="11.180424252488342" opacity="0.7807597652857657" transform="matrix(0.9541490421488814,-0.29933193175198025,0.29933193175198025,0.9541490421488814,179.55998345076665,45.259381351602485)" fill="none" stroke="#2c2891"></use><use xlink:href="#bbburst-shape-5" width="16.633880002376323" opacity="0.45773166348213445" transform="matrix(0.8486911379948621,0.5288887900957875,-0.5288887900957875,0.8486911379948621,820.7612553348731,-56.905708445102846)" fill="#ff5c58"></use><use xlink:href="#bbburst-shape-10" width="9.25710166042596" opacity="0.7624113665757053" transform="matrix(0.9953848136442857,0.09596391387563707,-0.09596391387563707,0.9953848136442857,341.0683696256277,54.652695435425414)" fill="none" stroke="#2c2891"></use><use xlink:href="#bbburst-shape-8" width="23.297079387873364" opacity="0.15226098721500447" transform="matrix(0.7840101204710392,-0.6207480414781722,0.6207480414781722,0.7840101204710392,516.1495071845318,16.387214840352726)" fill="none" stroke="#ff5c58"></use><use xlink:href="#bbburst-shape-1" width="36.7566480036281" opacity="0.2117495662381128" transform="matrix(0.8591326537809237,0.5117529513420976,-0.5117529513420976,0.8591326537809237,284.7948866197207,229.598883934203)" fill="#ff5c58"></use><use xlink:href="#bbburst-shape-1" width="12.187511124612584" opacity="0.7168371800094051" transform="matrix(0.952228153290183,0.3053875309857425,-0.3053875309857425,0.952228153290183,509.23105735800107,144.48712153281213)" fill="#2c2891"></use><use xlink:href="#bbburst-shape-5" width="32.5575581286306" opacity="0.28008084449469073" transform="matrix(0.9554441308841416,-0.2951720053783003,0.2951720053783003,0.9554441308841416,495.10125779524003,-206.80226457585152)" fill="#2c2891"></use><use xlink:href="#bbburst-shape-10" width="21.39045517530456" opacity="0.35399476728278145" transform="matrix(0.9606463321753825,-0.2777744129288813,0.2777744129288813,0.9606463321753825,553.9533250762692,111.97085723191083)" fill="none" stroke="#ff5c58"></use><use xlink:href="#bbburst-shape-11" width="18.514392291097884" opacity="0.5566449959345181" transform="matrix(0.9998293330257881,-0.018474436965917662,0.018474436965917662,0.9998293330257881,280.30037367892146,170.83655508409691)" fill="none" stroke="#ff5c58"></use><use xlink:href="#bbburst-shape-10" width="7.525915975633991" opacity="0.8959370403591097" transform="matrix(0.9221692318124693,-0.38678664389867473,0.38678664389867473,0.9221692318124693,208.5372936639416,65.53423929734879)" fill="none" stroke="#2c2891"></use><use xlink:href="#bbburst-shape-5" width="19.984241602514796" opacity="0.17379911918818047" transform="matrix(0.933513437105795,0.3585424141477892,-0.3585424141477892,0.933513437105795,523.3098494106955,394.6461336033696)" fill="#ff5c58"></use><use xlink:href="#bbburst-shape-11" width="37.001573561502695" opacity="0.1661075497874156" transform="matrix(0.7436652544667719,-0.6685521589964925,0.6685521589964925,0.7436652544667719,229.93455802440099,-243.77657808043836)" fill="none" stroke="#2c2891"></use><use xlink:href="#bbburst-shape-8" width="11.128989396169764" opacity="0.8148359648437501" transform="matrix(0.8253356933376166,-0.5646423587572187,0.5646423587572187,0.8253356933376166,214.7848028531676,142.98419942134484)" fill="none" stroke="#2c2891"></use><use xlink:href="#bbburst-shape-5" width="12.260489989462261" opacity="0.7098969898150406" transform="matrix(0.919016192868167,-0.39421978292077126,0.39421978292077126,0.919016192868167,357.95954666044,-13.493092307829727)" fill="#ff5c58"></use><use xlink:href="#bbburst-shape-11" width="25.413537052665333" opacity="0.22559607604897625" transform="matrix(0.8742462260230951,0.48548278680543894,-0.48548278680543894,0.8742462260230951,768.7701456939352,-251.1440931961074)" fill="none" stroke="#ff5c58"></use><use xlink:href="#bbburst-shape-11" width="10.76008035463586" opacity="0.6468814636373352" transform="matrix(0.8758498026643092,-0.4825837991197908,0.4825837991197908,0.8758498026643092,360.36971446756763,37.013999412771)" fill="none" stroke="#ff5c58"></use><use xlink:href="#bbburst-shape-10" width="10.068565073601675" opacity="0.7702848666045071" transform="matrix(0.975033911501657,-0.22205600965022101,0.22205600965022101,0.975033911501657,212.11647765572826,-31.569276916942158)" fill="none" stroke="#ff5c58"></use><use xlink:href="#bbburst-shape-10" width="16.417541298319858" opacity="0.5890601806172293" transform="matrix(0.7541338167508571,-0.6567207827020436,0.6567207827020436,0.7541338167508571,182.52742032301467,281.37146371519185)" fill="none" stroke="#2c2891"></use><use xlink:href="#bbburst-shape-8" width="24.54816272404786" opacity="0.1048092791413815" transform="matrix(0.7605480854142088,0.64928161053027,-0.64928161053027,0.7605480854142088,1017.9400038178369,-77.03572686280125)" fill="none" stroke="#2c2891"></use><use xlink:href="#bbburst-shape-10" width="33.305612203592446" opacity="0.004482528544232034" transform="matrix(0.949379786902467,-0.31413057829671126,0.31413057829671126,0.949379786902467,622.8353602889983,-235.24289877964486)" fill="none" stroke="#2c2891"></use><use xlink:href="#bbburst-shape-1" width="9.062429017592752" opacity="0.7731583820074237" transform="matrix(0.9999997623453457,-0.0006894267561070455,0.0006894267561070455,0.9999997623453457,367.46301727839483,98.25497288160625)" fill="#ff5c58"></use><use xlink:href="#bbburst-shape-5" width="30.831569310660974" opacity="0.33324327264570053" transform="matrix(0.90018530215795,0.4355070857963165,-0.4355070857963165,0.90018530215795,294.3675396597404,-105.67821499091372)" fill="#2c2891"></use><use xlink:href="#bbburst-shape-10" width="14.355637948475744" opacity="0.6142965659964841" transform="matrix(0.9350171104311678,-0.354602598976586,0.354602598976586,0.9350171104311678,84.78918922040785,-19.941693311087818)" fill="none" stroke="#2c2891"></use><use xlink:href="#bbburst-shape-11" width="22.317560979843865" opacity="0.17488054923001373" transform="matrix(0.9995644422240629,0.0295114527141238,-0.0295114527141238,0.9995644422240629,771.5760882312754,16.501045475538774)" fill="none" stroke="#2c2891"></use><use xlink:href="#bbburst-shape-8" width="9.14635023281553" opacity="0.7182671139826421" transform="matrix(0.8974250625831699,-0.441166926511489,0.441166926511489,0.8974250625831699,200.58587731957343,-82.32413320330932)" fill="none" stroke="#2c2891"></use><use xlink:href="#bbburst-shape-8" width="7.617978471765359" opacity="0.8684801371952444" transform="matrix(0.720206408247553,-0.6937598500339718,0.6937598500339718,0.720206408247553,85.34653027175631,66.4045139235173)" fill="none" stroke="#ff5c58"></use><use xlink:href="#bbburst-shape-10" width="7.760146926352458" opacity="0.8505082992036289" transform="matrix(0.9607102373022636,-0.2775533100912841,0.2775533100912841,0.9607102373022636,270.48984953265386,82.42460964785869)" fill="none" stroke="#ff5c58"></use><use xlink:href="#bbburst-shape-1" width="5.235199342017142" opacity="0.9501504130456703" transform="matrix(0.8165321897801546,0.5772999073729577,-0.5772999073729577,0.8165321897801546,645.0428232658219,56.43197661229334)" fill="#ff5c58"></use><use xlink:href="#bbburst-shape-5" width="9.244387070831609" opacity="0.8283244902678384" transform="matrix(0.8367932345151192,0.5475190249386085,-0.5475190249386085,0.8367932345151192,692.1947320376319,57.210032669986276)" fill="#2c2891"></use><use xlink:href="#bbburst-shape-1" width="8.299283355536526" opacity="0.8138784102707768" transform="matrix(0.9442157018466447,-0.32932766113135425,0.32932766113135425,0.9442157018466447,271.94644813949884,-59.71949123542157)" fill="#ff5c58"></use><use xlink:href="#bbburst-shape-10" width="11.608828032524988" opacity="0.67845755401442" transform="matrix(0.9278954386300985,-0.37284052216659214,0.37284052216659214,0.9278954386300985,128.83505978308048,116.6261894021589)" fill="none" stroke="#2c2891"></use><use xlink:href="#bbburst-shape-8" width="32.58697015664195" opacity="0.11287574725742588" transform="matrix(0.7673072704442547,-0.6412796213223895,0.6412796213223895,0.7673072704442547,423.50587106453565,375.18274199165927)" fill="none" stroke="#ff5c58"></use><use xlink:href="#bbburst-shape-11" width="6.611440775666215" opacity="0.940605513397507" transform="matrix(0.9735604932369273,0.22842934576860074,-0.22842934576860074,0.9735604932369273,492.3923507957803,-16.654627325932438)" fill="none" stroke="#2c2891"></use><use xlink:href="#bbburst-shape-10" width="24.60696384762091" opacity="0.3018831388174753" transform="matrix(0.8144129910715109,-0.5802856882380911,0.5802856882380911,0.8144129910715109,110.04894336693536,-229.11786700601465)" fill="none" stroke="#2c2891"></use><use xlink:href="#bbburst-shape-11" width="7.662332949426433" opacity="0.747937759222939" transform="matrix(0.7390437178109422,0.6736574672370079,-0.6736574672370079,0.7390437178109422,762.2167117113505,40.55586813460377)" fill="none" stroke="#2c2891"></use><use xlink:href="#bbburst-shape-10" width="4.783331685227107" opacity="0.965030107722089" transform="matrix(0.9947237543113536,-0.10258972954797052,0.10258972954797052,0.9947237543113536,353.185709127603,-13.009046474440595)" fill="none" stroke="#2c2891"></use><use xlink:href="#bbburst-shape-11" width="18.60810846387575" opacity="0.46207279465518736" transform="matrix(0.9920027606400185,-0.12621617520184283,0.12621617520184283,0.9920027606400185,456.53312160466334,-208.1748720923156)" fill="none" stroke="#ff5c58"></use><use xlink:href="#bbburst-shape-10" width="19.5642812619009" opacity="0.4660590984226626" transform="matrix(0.9632292850184706,-0.26868074825488697,0.26868074825488697,0.9632292850184706,351.67411015117636,-212.9450497360432)" fill="none" stroke="#2c2891"></use><use xlink:href="#bbburst-shape-8" width="16.220874763447476" opacity="0.5029154923207082" transform="matrix(0.7699854681151467,-0.6380614225068764,0.6380614225068764,0.7699854681151467,353.25105156474643,34.479741294323446)" fill="none" stroke="#2c2891"></use><use xlink:href="#bbburst-shape-11" width="12.40469040007364" opacity="0.7043823403637507" transform="matrix(0.9522906124389974,0.30519270872771415,-0.30519270872771415,0.9522906124389974,427.560244078295,116.2151454944792)" fill="none" stroke="#2c2891"></use><use xlink:href="#bbburst-shape-11" width="14.478129244451377" opacity="0.5744302998156126" transform="matrix(0.8762537204063285,-0.48184999478475443,0.48184999478475443,0.8762537204063285,389.663570254717,20.958067506563395)" fill="none" stroke="#ff5c58"></use><use xlink:href="#bbburst-shape-10" width="21.803086530789226" opacity="0.44888431048119304" transform="matrix(0.847280807842848,-0.5311452086399453,0.5311452086399453,0.847280807842848,142.6343064505133,-178.5453372904286)" fill="none" stroke="#2c2891"></use><use xlink:href="#bbburst-shape-11" width="8.982991843015224" opacity="0.741752012125972" transform="matrix(0.9990027433567442,0.044648838346580295,-0.044648838346580295,0.9990027433567442,487.26236465880453,-89.61782803637482)" fill="none" stroke="#ff5c58"></use><use xlink:href="#bbburst-shape-5" width="24.34964831264798" opacity="0.33434954672829287" transform="matrix(0.9044894226490172,-0.4264960542795765,0.4264960542795765,0.9044894226490172,46.388442964836116,288.6342389211659)" fill="#ff5c58"></use><use xlink:href="#bbburst-shape-10" width="18.3641736056166" opacity="0.6239056279391382" transform="matrix(0.8629401006204367,0.5053062266994052,-0.5053062266994052,0.8629401006204367,424.9634849665291,48.6378923022595)" fill="none" stroke="#2c2891"></use><use xlink:href="#bbburst-shape-1" width="5.783584732081552" opacity="0.8998293632976795" transform="matrix(0.8424978054469692,0.5386997752153242,-0.5386997752153242,0.8424978054469692,568.0798731153113,64.69621041365065)" fill="#ff5c58"></use><use xlink:href="#bbburst-shape-5" width="14.209398287246383" opacity="0.65481233584635" transform="matrix(0.8607435999887574,-0.5090387559689282,0.5090387559689282,0.8607435999887574,325.0617320544129,-17.88033401691405)" fill="#ff5c58"></use><use xlink:href="#bbburst-shape-8" width="30.588902616158236" opacity="0.4612956807479416" transform="matrix(0.9952886325199973,-0.09695637151045704,0.09695637151045704,0.9952886325199973,428.96083568220917,231.14508396871986)" fill="none" stroke="#ff5c58"></use><use xlink:href="#bbburst-shape-10" width="7.69053411761378" opacity="0.8646271947158201" transform="matrix(0.9999964752061422,-0.0026551036310217676,0.0026551036310217676,0.9999964752061422,438.0134267366494,43.241072317558064)" fill="none" stroke="#2c2891"></use><use xlink:href="#bbburst-shape-8" width="6.1095307255042" opacity="0.8926361666366103" transform="matrix(0.9118600622807121,-0.4105011897880636,0.4105011897880636,0.9118600622807121,188.5364985190184,55.377057097555564)" fill="none" stroke="#ff5c58"></use><use xlink:href="#bbburst-shape-11" width="10.520155540986899" opacity="0.8175916152960956" transform="matrix(0.9968118909915432,-0.07978755528190906,0.07978755528190906,0.9968118909915432,289.5051906203072,38.45283161560411)" fill="none" stroke="#2c2891"></use><use xlink:href="#bbburst-shape-1" width="29.799170051835354" opacity="0.08414780869431482" transform="matrix(0.9674589894403235,0.253027871490688,-0.253027871490688,0.9674589894403235,675.1934123799209,-357.26373950058144)" fill="#2c2891"></use><use xlink:href="#bbburst-shape-10" width="11.565045492145604" opacity="0.6726857863214502" transform="matrix(0.8069430834274984,-0.5906292069551938,0.5906292069551938,0.8069430834274984,46.17206542162964,-13.94555435948456)" fill="none" stroke="#ff5c58"></use><use xlink:href="#bbburst-shape-8" width="9.507322445853431" opacity="0.7945507101052232" transform="matrix(0.9474227679575564,0.3199845289317004,-0.3199845289317004,0.9474227679575564,559.5551188724289,-65.61786816243074)" fill="none" stroke="#ff5c58"></use><use xlink:href="#bbburst-shape-11" width="14.437570154529807" opacity="0.5846948065625939" transform="matrix(0.9475903615229613,0.3194878820061623,-0.3194878820061623,0.9475903615229613,610.0616356839903,182.79014753735822)" fill="none" stroke="#2c2891"></use><use xlink:href="#bbburst-shape-11" width="34.739893272684945" opacity="0.1857326033336114" transform="matrix(0.9865713002583277,0.1633311651418449,-0.1633311651418449,0.9865713002583277,137.02206773975792,-191.27029443702062)" fill="none" stroke="#ff5c58"></use><use xlink:href="#bbburst-shape-8" width="22.69058086175096" opacity="0.3537290498837572" transform="matrix(0.9388757774454677,-0.34425611763070924,0.34425611763070924,0.9388757774454677,151.7532240583028,-244.77258048964853)" fill="none" stroke="#2c2891"></use><use xlink:href="#bbburst-shape-1" width="25.02939026467083" opacity="0.46093060983199097" transform="matrix(0.966068307043161,-0.25828671302790757,0.25828671302790757,0.966068307043161,526.3400953947956,-3.390305279179472)" fill="#ff5c58"></use><use xlink:href="#bbburst-shape-5" width="10.868113982006342" opacity="0.7219182386012786" transform="matrix(0.9123664827435501,0.4093744021872437,-0.4093744021872437,0.9123664827435501,510.5930412722249,-82.6531240025007)" fill="#ff5c58"></use><use xlink:href="#bbburst-shape-5" width="6.869462410106651" opacity="0.8856395991452582" transform="matrix(0.7598867661417734,0.6500554612051173,-0.6500554612051173,0.7598867661417734,679.3609158999141,47.2656817949528)" fill="#ff5c58"></use><use xlink:href="#bbburst-shape-8" width="8.560922032383342" opacity="0.8242238706162812" transform="matrix(0.8673421481026662,0.49771236485007353,-0.49771236485007353,0.8673421481026662,582.2315872741176,-27.067384952255168)" fill="none" stroke="#2c2891"></use><use xlink:href="#bbburst-shape-8" width="26.120448340968657" opacity="0.3730885177191614" transform="matrix(0.7090930488798457,0.7051149183149402,-0.7051149183149402,0.7090930488798457,833.9332519702602,-124.40049597076293)" fill="none" stroke="#2c2891"></use><use xlink:href="#bbburst-shape-1" width="5.083151903663315" opacity="0.9155860959450556" transform="matrix(0.9817506335727746,-0.1901727989998983,0.1901727989998983,0.9817506335727746,335.9380799197472,42.89894663454339)" fill="#ff5c58"></use><use xlink:href="#bbburst-shape-10" width="28.603929340196057" opacity="0.2685930476989552" transform="matrix(0.9438883613530711,-0.33026468370416834,0.33026468370416834,0.9438883613530711,559.2955229169561,-96.7838940046841)" fill="none" stroke="#2c2891"></use><use xlink:href="#bbburst-shape-5" width="19.2807627327523" opacity="0.5719093878570413" transform="matrix(0.9946979473937029,0.1028396492154381,-0.1028396492154381,0.9946979473937029,417.32704924681633,-190.98585527322027)" fill="#2c2891"></use><use xlink:href="#bbburst-shape-10" width="8.498136203937525" opacity="0.6986894186978476" transform="matrix(0.9001869377292299,-0.43550370508374736,0.43550370508374736,0.9001869377292299,357.1433767873781,52.43893042781184)" fill="none" stroke="#ff5c58"></use><use xlink:href="#bbburst-shape-10" width="20.3194556924386" opacity="0.5531354324850648" transform="matrix(0.9986734363565056,-0.051491431480281305,0.051491431480281305,0.9986734363565056,259.91526203802255,-167.70985226521785)" fill="none" stroke="#2c2891"></use><use xlink:href="#bbburst-shape-5" width="29.24239830346165" opacity="0.28456173982021027" transform="matrix(0.8990430215750854,0.4378603034726264,-0.4378603034726264,0.8990430215750854,517.7168052015816,352.86802449080756)" fill="#2c2891"></use><use xlink:href="#bbburst-shape-5" width="20.45540138549244" opacity="0.512316308320276" transform="matrix(0.9893102820848239,0.14582580622525732,-0.14582580622525732,0.9893102820848239,578.880754329204,179.10041805208004)" fill="#ff5c58"></use><use xlink:href="#bbburst-shape-11" width="19.85998694981209" opacity="0.5655401314300561" transform="matrix(0.8249349516233406,-0.5652276758883952,0.5652276758883952,0.8249349516233406,246.93021199707522,-102.34729492544946)" fill="none" stroke="#2c2891"></use><use xlink:href="#bbburst-shape-1" width="7.4530059762538885" opacity="0.8827500869051341" transform="matrix(0.9905445468851803,-0.1371914743562174,0.1371914743562174,0.9905445468851803,352.1691150153297,55.96164901931104)" fill="#2c2891"></use><use xlink:href="#bbburst-shape-11" width="37.42544755283329" opacity="0.11847864187680568" transform="matrix(0.9468934733909655,-0.3215474304820254,0.3215474304820254,0.9468934733909655,-13.673911475349911,-266.4086233257407)" fill="none" stroke="#2c2891"></use><use xlink:href="#bbburst-shape-5" width="8.163166340182464" opacity="0.8223435843674265" transform="matrix(0.8119663683456593,0.5837042201968058,-0.5837042201968058,0.8119663683456593,550.2602746787431,75.2983453423223)" fill="#ff5c58"></use><use xlink:href="#bbburst-shape-1" width="20.312504147434886" opacity="0.5122881880508927" transform="matrix(0.9469591273247754,0.32135402778913436,-0.32135402778913436,0.9469591273247754,347.07834569972107,154.5026900492888)" fill="#2c2891"></use><use xlink:href="#bbburst-shape-8" width="16.590960645277228" opacity="0.5145426231148029" transform="matrix(0.7080392393109004,0.7061730918096791,-0.7061730918096791,0.7080392393109004,859.2609585065234,230.74422242550412)" fill="none" stroke="#2c2891"></use><use xlink:href="#bbburst-shape-1" width="15.808729657800072" opacity="0.6673895341977555" transform="matrix(0.7796415218537053,-0.6262260753127726,0.6262260753127726,0.7796415218537053,-2.0071534822611454,128.75994831582665)" fill="#ff5c58"></use><use xlink:href="#bbburst-shape-11" width="18.38932319528067" opacity="0.3872745648320228" transform="matrix(0.9960742264555376,-0.08852194863988516,0.08852194863988516,0.9960742264555376,383.2503375886389,-272.1693013067559)" fill="none" stroke="#ff5c58"></use><use xlink:href="#bbburst-shape-5" width="6.731077340484902" opacity="0.847492587084808" transform="matrix(0.9759712250982818,0.21789944419424057,-0.21789944419424057,0.9759712250982818,459.7461652428421,-55.368571740775906)" fill="#ff5c58"></use><use xlink:href="#bbburst-shape-8" width="16.05434009272601" opacity="0.5548460506186044" transform="matrix(0.8023737814985077,0.5968218450792373,-0.5968218450792373,0.8023737814985077,650.2062970589202,273.775989060247)" fill="none" stroke="#ff5c58"></use><use xlink:href="#bbburst-shape-5" width="8.87578610710457" opacity="0.76584027118395" transform="matrix(0.798752909381273,-0.6016591973492568,0.6016591973492568,0.798752909381273,176.85909520168514,-20.075389122556828)" fill="#ff5c58"></use><use xlink:href="#bbburst-shape-5" width="16.598858386281275" opacity="0.5873865616469358" transform="matrix(0.893903671750692,-0.4482591054631586,0.4482591054631586,0.893903671750692,252.32893014306308,-135.3641008589611)" fill="#2c2891"></use><use xlink:href="#bbburst-shape-8" width="4.348794993752354" opacity="0.9533512990957038" transform="matrix(0.9366519353586596,-0.3502615479736211,0.3502615479736211,0.9366519353586596,252.317557120062,46.34820118303912)" fill="none" stroke="#2c2891"></use><use xlink:href="#bbburst-shape-10" width="8.216819415903657" opacity="0.797508895218741" transform="matrix(0.9965718573039914,0.08273169422701929,-0.08273169422701929,0.9965718573039914,362.9183059444704,-61.70988216749362)" fill="none" stroke="#ff5c58"></use><use xlink:href="#bbburst-shape-8" width="8.950557659739493" opacity="0.8713239779543613" transform="matrix(0.8177680518694171,0.5755479244526022,-0.5755479244526022,0.8177680518694171,684.4438420308264,71.83106175119457)" fill="none" stroke="#2c2891"></use><use xlink:href="#bbburst-shape-10" width="28.930202798858716" opacity="0.2603769551467138" transform="matrix(0.9427455345603851,0.33351290389796573,-0.33351290389796573,0.9427455345603851,845.9448794347903,84.29578754420908)" fill="none" stroke="#2c2891"></use><use xlink:href="#bbburst-shape-5" width="8.443720916336435" opacity="0.8433582988552917" transform="matrix(0.9262766733702238,0.37684416456964237,-0.37684416456964237,0.9262766733702238,552.2138072174207,98.18098370148039)" fill="#2c2891"></use><use xlink:href="#bbburst-shape-10" width="16.654053977930868" opacity="0.4701771202333863" transform="matrix(0.761130265996526,-0.6485990426943734,0.6485990426943734,0.761130265996526,34.40829956423232,-115.57227458698586)" fill="none" stroke="#2c2891"></use><use xlink:href="#bbburst-shape-1" width="32.62483905043605" opacity="0.19208908864555763" transform="matrix(0.9004290020140905,0.43500300266999187,-0.43500300266999187,0.9004290020140905,862.0313771311573,-168.54125840382434)" fill="#2c2891"></use><use xlink:href="#bbburst-shape-10" width="8.248212216859539" opacity="0.8104138376280069" transform="matrix(0.7342545017258252,0.6788743084661255,-0.6788743084661255,0.7342545017258252,660.1214461840257,188.397670699866)" fill="none" stroke="#ff5c58"></use><use xlink:href="#bbburst-shape-10" width="6.566033980940119" opacity="0.9638778876098774" transform="matrix(0.9651545177447791,-0.2616806390943796,0.2616806390943796,0.9651545177447791,277.7381591018261,22.297899954886475)" fill="none" stroke="#ff5c58"></use><use xlink:href="#bbburst-shape-10" width="9.38153053548597" opacity="0.7497943694077429" transform="matrix(0.8752626782906926,0.4836478512217372,-0.4836478512217372,0.8752626782906926,701.9298127710441,49.53674921174394)" fill="none" stroke="#2c2891"></use><use xlink:href="#bbburst-shape-8" width="5.885911849668857" opacity="0.9056747425556659" transform="matrix(0.7338287776679232,-0.6793344721611011,0.6793344721611011,0.7338287776679232,131.2980399455597,66.34004365223939)" fill="none" stroke="#2c2891"></use><use xlink:href="#bbburst-shape-1" width="10.861429199473225" opacity="0.8206618457937395" transform="matrix(0.9770779894592793,0.21288166317043994,-0.21288166317043994,0.9770779894592793,445.31437415809575,80.96869725976103)" fill="#ff5c58"></use><use xlink:href="#bbburst-shape-10" width="33.4764380474153" opacity="0.26488838659360603" transform="matrix(0.9981852585683832,0.060217850981000264,-0.060217850981000264,0.9981852585683832,86.90017802031242,-82.26930447686141)" fill="none" stroke="#ff5c58"></use><use xlink:href="#bbburst-shape-8" width="4.532362545910141" opacity="0.9258521698113544" transform="matrix(0.9915155846443634,0.12998786638508317,-0.12998786638508317,0.9915155846443634,419.30806926489146,16.763879113933342)" fill="none" stroke="#ff5c58"></use><use xlink:href="#bbburst-shape-11" width="7.0890856578153985" opacity="0.8682561744017555" transform="matrix(0.8177615075261417,-0.5755572228793346,0.5755572228793346,0.8177615075261417,139.29252108172068,127.36400891787355)" fill="none" stroke="#2c2891"></use><use xlink:href="#bbburst-shape-8" width="9.125650857793557" opacity="0.8638219933141" transform="matrix(0.846379768714449,-0.5325798410669296,0.5325798410669296,0.846379768714449,122.0368251170114,58.80028357076395)" fill="none" stroke="#ff5c58"></use><use xlink:href="#bbburst-shape-8" width="12.709749616252914" opacity="0.7303671815751568" transform="matrix(0.9967279741902711,-0.08082911274137623,0.08082911274137623,0.9967279741902711,478.6732289125824,32.70452377273773)" fill="none" stroke="#ff5c58"></use><use xlink:href="#bbburst-shape-8" width="18.9673854682622" opacity="0.6191902709545469" transform="matrix(0.861895803718139,-0.5070854203515056,0.5070854203515056,0.861895803718139,37.37177447169421,139.90744848331053)" fill="none" stroke="#ff5c58"></use><use xlink:href="#bbburst-shape-1" width="27.296101574626817" opacity="0.020398464824640583" transform="matrix(0.9965204997504534,0.0833480268339126,-0.0833480268339126,0.9965204997504534,174.0970047011627,366.3282494624796)" fill="#2c2891"></use><use xlink:href="#bbburst-shape-8" width="11.307158262790809" opacity="0.642141250906907" transform="matrix(0.977320697734114,-0.21176461881179423,0.21176461881179423,0.977320697734114,169.19515188746897,-68.2917958473659)" fill="none" stroke="#ff5c58"></use><use xlink:href="#bbburst-shape-11" width="20.612235244921237" opacity="0.4749977931125636" transform="matrix(0.7756465401749941,0.6311675250791673,-0.6311675250791673,0.7756465401749941,418.4261530059614,151.15886488692024)" fill="none" stroke="#ff5c58"></use><use xlink:href="#bbburst-shape-10" width="14.29965053776228" opacity="0.7106944461982931" transform="matrix(0.9630467912514954,-0.26933413794058625,0.26933413794058625,0.9630467912514954,206.9486551304995,-87.20258695891954)" fill="none" stroke="#2c2891"></use><use xlink:href="#bbburst-shape-5" width="10.868884240654832" opacity="0.583651696309941" transform="matrix(0.927668611684193,-0.37340453518392336,0.37340453518392336,0.927668611684193,419.9586917536326,-37.59826810121194)" fill="#ff5c58"></use><use xlink:href="#bbburst-shape-11" width="15.293764548541073" opacity="0.5837026206986118" transform="matrix(0.918431506346615,-0.39558004013080295,0.39558004013080295,0.918431506346615,417.917699126734,74.36980851396487)" fill="none" stroke="#ff5c58"></use><use xlink:href="#bbburst-shape-10" width="5.4744413480589245" opacity="0.9360945621592178" transform="matrix(0.7867674327287791,0.6172495498559444,-0.6172495498559444,0.7867674327287791,626.0823614165507,61.72541946554634)" fill="none" stroke="#2c2891"></use><use xlink:href="#bbburst-shape-8" width="9.583385774990036" opacity="0.7710982983584334" transform="matrix(0.7183175331828463,0.6957154026770649,-0.6957154026770649,0.7183175331828463,571.8386875295178,109.56664224822771)" fill="none" stroke="#ff5c58"></use><use xlink:href="#bbburst-shape-8" width="8.70777428239391" opacity="0.823402190599982" transform="matrix(0.8678686434126417,0.49679373766292695,-0.49679373766292695,0.8678686434126417,551.2445155553398,-15.689092383840489)" fill="none" stroke="#ff5c58"></use><use xlink:href="#bbburst-shape-8" width="15.226558177423964" opacity="0.650276807402728" transform="matrix(0.9482415449163224,0.3175499527550053,-0.3175499527550053,0.9482415449163224,525.3399006915031,-138.99214599083408)" fill="none" stroke="#ff5c58"></use><use xlink:href="#bbburst-shape-11" width="9.113448100620705" opacity="0.9060404111519462" transform="matrix(0.9935696762040526,0.1132223411159398,-0.1132223411159398,0.9935696762040526,480.9272674703285,-11.309336581235868)" fill="none" stroke="#2c2891"></use><use xlink:href="#bbburst-shape-10" width="16.292875059719563" opacity="0.6704602111629901" transform="matrix(0.844886197288082,-0.5349460847899387,0.5349460847899387,0.844886197288082,200.2492796460458,213.18602990797115)" fill="none" stroke="#ff5c58"></use><use xlink:href="#bbburst-shape-5" width="5.551036663166426" opacity="0.9890342247326988" transform="matrix(0.9057038426960942,-0.42391101581054574,0.42391101581054574,0.9057038426960942,223.319125748739,37.11579317496751)" fill="#2c2891"></use><use xlink:href="#bbburst-shape-10" width="17.568847797970488" opacity="0.5045212236332652" transform="matrix(0.9290445878014139,0.3699677741059362,-0.3699677741059362,0.9290445878014139,556.4301627338273,-197.21411734931166)" fill="none" stroke="#2c2891"></use><use xlink:href="#bbburst-shape-8" width="22.69562512159206" opacity="0.3729531316346887" transform="matrix(0.9982561681742763,-0.05903069288099999,0.05903069288099999,0.9982561681742763,608.025552463491,144.85302700453536)" fill="none" stroke="#ff5c58"></use><use xlink:href="#bbburst-shape-8" width="38.48444082223894" opacity="0.10764473742642444" transform="matrix(0.9180650724010485,-0.3964297199217756,0.3964297199217756,0.9180650724010485,-65.8577255092167,318.5575780077411)" fill="none" stroke="#ff5c58"></use><use xlink:href="#bbburst-shape-11" width="11.483417154983803" opacity="0.7017122118507606" transform="matrix(0.9508172749207404,0.30975233608852254,-0.30975233608852254,0.9508172749207404,620.819705963284,104.61971173965594)" fill="none" stroke="#ff5c58"></use><use xlink:href="#bbburst-shape-11" width="8.773863685855739" opacity="0.8439591281288209" transform="matrix(0.8315515321855099,-0.555447611679023,0.555447611679023,0.8315515321855099,195.18667982353918,2.7414484206802854)" fill="none" stroke="#ff5c58"></use><use xlink:href="#bbburst-shape-8" width="33.17797498419357" opacity="0.1894298724384592" transform="matrix(0.9020892965659649,-0.4315494189790116,0.4315494189790116,0.9020892965659649,59.436533537544335,-284.80329247021206)" fill="none" stroke="#2c2891"></use></svg>